{"glyphs":{"0":{"ha":763,"x_min":0,"x_max":0,"o":"m 381 860 b 38 420 213 860 38 743 b 381 -18 38 99 213 -18 b 725 420 549 -18 725 99 b 381 860 725 743 549 860 z m 381 140 b 212 420 263 140 212 254 b 381 701 212 587 263 701 b 549 420 498 701 549 587 b 381 140 549 254 498 140 z "},"1":{"ha":406,"x_min":0,"x_max":0,"o":"m 190 845 b 8 674 190 678 8 674 l 8 578 l 179 577 l 179 1 l 351 1 l 351 845 b 190 845 351 845 229 845 z "},"2":{"ha":724,"x_min":0,"x_max":0,"o":"m 260 170 b 677 610 381 343 683 340 b 376 860 673 814 506 860 b 56 577 199 860 72 780 l 230 577 b 369 706 239 665 275 706 b 506 611 469 706 506 675 b 28 -1 506 411 28 409 l 685 -1 l 685 170 z "},"3":{"ha":742,"x_min":0,"x_max":0,"o":"m 559 457 b 672 633 621 486 672 538 b 367 867 672 824 521 867 b 49 619 198 867 58 797 l 223 619 b 365 707 234 692 276 707 b 504 612 469 707 504 672 b 374 521 504 555 436 521 l 270 521 l 270 372 l 374 372 b 530 271 444 372 530 350 b 373 157 530 186 477 157 b 203 260 268 157 211 181 l 29 260 b 367 -11 36 60 191 -11 b 704 263 538 -11 704 46 b 559 457 704 389 637 438 z "},"4":{"ha":754,"x_min":0,"x_max":0,"o":"m 731 158 l 731 306 l 613 306 l 613 842 l 386 842 l 21 318 l 21 158 l 441 158 l 441 -1 l 613 -1 l 613 158 z m 191 306 l 441 673 l 441 306 z "},"5":{"ha":729,"x_min":0,"x_max":0,"o":"m 402 582 b 216 525 333 582 268 561 l 234 674 l 644 674 l 644 845 l 117 845 l 62 373 l 213 373 b 366 436 254 416 300 436 b 517 292 466 436 517 386 b 366 144 517 201 470 144 b 208 245 280 144 224 176 l 33 245 b 359 -16 50 69 191 -16 b 691 293 531 -16 691 63 b 402 582 691 520 546 582 z "},"6":{"ha":757,"x_min":0,"x_max":0,"o":"m 410 558 b 215 487 330 558 256 544 b 392 703 222 628 264 703 b 516 619 462 703 503 676 l 704 619 b 392 862 687 805 519 862 b 39 422 199 862 39 745 b 392 -17 39 92 191 -17 b 718 284 560 -17 718 54 b 410 558 718 486 579 558 z m 392 141 b 225 284 293 141 225 176 b 401 423 225 386 293 423 b 542 284 475 423 542 390 b 392 141 542 180 485 141 z "},"7":{"ha":671,"x_min":0,"x_max":0,"o":"m 11 844 l 11 672 l 494 672 b 131 0 439 621 155 400 l 323 0 b 659 672 366 408 567 572 l 659 844 z "},"8":{"ha":785,"x_min":0,"x_max":0,"o":"m 610 459 b 712 625 670 490 712 540 b 393 864 710 790 582 864 b 72 625 202 864 74 790 b 174 459 72 540 115 490 b 36 253 95 425 37 362 b 393 -14 39 27 226 -14 b 748 253 560 -14 746 27 b 610 459 747 362 689 425 z m 393 144 b 220 264 278 144 220 174 b 393 386 220 355 278 386 b 564 264 506 386 564 355 b 393 144 564 174 506 144 z m 393 705 b 538 610 487 705 538 680 b 393 521 538 533 463 521 b 247 610 321 521 247 533 b 393 705 247 680 297 705 z "},"9":{"ha":757,"x_min":0,"x_max":0,"o":"m 364 864 b 39 562 196 864 39 793 b 346 288 39 362 178 288 b 540 359 426 288 499 304 b 364 144 534 219 492 144 b 240 227 294 144 254 171 l 51 227 b 364 -14 69 41 236 -14 b 717 425 557 -14 717 103 b 364 864 717 755 565 864 z m 355 424 b 213 562 281 424 213 457 b 364 705 213 667 271 705 b 540 562 462 705 529 671 b 355 424 550 458 463 425 z "},"\u0000":{"ha":0,"x_min":0,"x_max":0,"o":""},"\n":{"ha":0,"x_min":0,"x_max":0,"o":""},"\r":{"ha":0,"x_min":0,"x_max":0,"o":""}," ":{"ha":343,"x_min":0,"x_max":0,"o":""},"!":{"ha":293,"x_min":0,"x_max":0,"o":"m 212 287 l 249 845 l 42 845 l 79 287 z m 145 174 b 47 79 91 174 47 131 b 145 -15 47 27 91 -15 b 243 79 200 -15 243 27 b 145 174 243 131 200 174 z "},"\"":{"ha":551,"x_min":0,"x_max":0,"o":"m 60 452 l 196 452 l 231 847 l 25 847 z m 319 847 l 354 452 l 491 452 l 525 847 z "},"#":{"ha":889,"x_min":0,"x_max":0,"o":"m 862 496 l 862 621 l 739 621 l 788 823 l 636 823 l 586 621 l 418 621 l 469 823 l 316 823 l 265 621 l 88 621 l 88 496 l 234 496 l 193 328 l 26 328 l 26 203 l 161 203 l 111 2 l 264 2 l 313 203 l 481 203 l 431 2 l 583 2 l 634 203 l 800 203 l 800 328 l 665 328 l 707 496 z m 512 328 l 346 328 l 387 496 l 554 496 z "},"$":{"ha":861,"x_min":0,"x_max":0,"o":"m 825 270 b 474 516 825 484 651 488 b 468 517 472 516 471 516 l 468 688 b 578 588 541 675 578 635 l 781 588 b 468 861 781 731 703 846 l 468 983 l 393 983 l 393 862 b 53 592 158 856 53 758 b 332 344 53 422 158 380 b 393 332 354 339 374 335 l 393 157 b 246 276 313 165 246 198 l 36 276 b 393 -15 36 99 142 -6 l 393 -135 l 468 -135 l 468 -14 b 825 270 699 -6 825 79 z m 250 610 b 393 693 250 661 291 690 l 393 528 b 250 610 311 541 250 556 z m 468 154 l 468 318 b 610 238 564 300 610 288 b 468 154 610 186 559 159 z "},"%":{"ha":1089,"x_min":0,"x_max":0,"o":"m 462 615 b 242 857 462 774 374 857 b 24 615 111 857 24 774 b 242 373 24 456 111 373 b 462 615 374 373 462 456 z m 242 484 b 158 615 178 484 158 545 b 242 747 158 685 178 747 b 328 615 308 747 328 685 b 242 484 328 545 308 484 z m 708 839 l 266 -4 l 378 -4 l 821 839 z m 844 462 b 625 221 712 462 625 380 b 844 -21 625 61 712 -21 b 1063 221 976 -21 1063 61 b 844 462 1063 380 976 462 z m 844 90 b 759 221 779 90 759 151 b 844 351 759 290 779 351 b 929 221 909 351 929 290 b 844 90 929 151 909 90 z "},"&":{"ha":908,"x_min":0,"x_max":0,"o":"m 695 -4 l 912 -4 b 738 172 863 47 802 108 b 806 416 783 246 806 333 l 648 416 b 627 282 648 369 642 323 b 521 386 591 317 556 352 b 464 438 502 404 483 421 b 695 646 584 462 695 515 b 408 857 695 799 557 857 b 131 634 260 857 131 801 b 203 469 131 569 155 525 b 28 246 109 433 28 372 b 388 -21 28 76 160 -21 b 632 55 487 -21 568 8 b 695 -4 652 37 673 16 z m 399 126 b 210 269 280 126 210 184 b 282 389 210 319 231 361 b 339 332 299 372 318 352 b 525 155 393 280 449 226 b 399 126 491 137 449 126 z m 408 710 b 513 626 463 710 513 686 b 371 522 513 562 442 537 b 314 619 336 556 314 587 b 408 710 314 679 353 710 z "},"'":{"ha":257,"x_min":0,"x_max":0,"o":"m 25 839 l 60 443 l 197 443 l 231 839 z "},"(":{"ha":424,"x_min":0,"x_max":0,"o":"m 457 963 l 292 963 b 38 414 203 881 38 715 b 292 -136 38 113 203 -53 l 457 -136 b 264 414 371 -43 264 150 b 457 963 264 678 371 871 z "},")":{"ha":424,"x_min":0,"x_max":0,"o":"m 132 963 l -33 963 b 160 414 52 871 160 678 b -33 -136 160 150 52 -43 l 132 -136 b 385 414 221 -53 385 112 b 132 963 385 715 221 881 z "},"*":{"ha":533,"x_min":0,"x_max":0,"o":"m 514 614 l 471 744 l 320 678 l 335 843 l 198 843 l 215 678 l 63 744 l 19 614 l 182 578 l 71 453 l 183 373 l 267 516 l 351 373 l 462 453 l 352 578 z "},"+":{"ha":594,"x_min":0,"x_max":0,"o":"m 574 484 l 371 484 l 371 687 l 222 687 l 222 484 l 19 484 l 19 335 l 222 335 l 222 133 l 371 133 l 371 335 l 574 335 z "},",":{"ha":257,"x_min":0,"x_max":0,"o":"m 33 151 l -14 -138 l 133 -138 l 250 151 z "},"-":{"ha":376,"x_min":0,"x_max":0,"o":"m 11 495 l 11 346 l 365 346 l 365 495 z "},".":{"ha":263,"x_min":0,"x_max":0,"o":"m 132 224 b 13 104 66 224 13 169 b 132 -15 13 38 66 -15 b 250 104 197 -15 250 38 b 132 224 250 169 197 224 z "},"/":{"ha":600,"x_min":0,"x_max":0,"o":"m 402 841 l 8 -3 l 194 -3 l 588 841 z "},":":{"ha":293,"x_min":0,"x_max":0,"o":"m 147 421 b 265 540 212 421 265 475 b 147 660 265 607 212 660 b 28 540 81 660 28 607 b 147 421 28 475 81 421 z m 147 221 b 28 102 81 221 28 167 b 147 -18 28 35 81 -18 b 265 102 212 -18 265 35 b 147 221 265 167 212 221 z "},";":{"ha":300,"x_min":0,"x_max":0,"o":"m 0 -133 l 148 -133 l 264 157 l 48 157 z m 157 400 b 276 519 223 400 276 454 b 157 639 276 586 223 639 b 37 519 90 639 37 586 b 157 400 37 454 90 400 z "},"<":{"ha":574,"x_min":0,"x_max":0,"o":"m 567 776 l 18 490 l 18 336 l 567 50 l 567 229 l 191 413 l 567 597 z "},"=":{"ha":604,"x_min":0,"x_max":0,"o":"m 24 589 l 24 441 l 579 441 l 579 589 z m 24 212 l 579 212 l 579 362 l 24 362 z "},">":{"ha":571,"x_min":0,"x_max":0,"o":"m 3 787 l 3 608 l 379 424 l 3 241 l 3 61 l 552 348 l 552 501 z "},"?":{"ha":676,"x_min":0,"x_max":0,"o":"m 327 859 b 13 568 154 859 23 777 l 193 568 b 332 709 197 659 238 709 b 474 615 424 709 474 678 b 238 283 474 486 238 531 l 397 283 b 653 615 397 424 653 376 b 327 859 653 822 487 859 z m 321 170 b 222 75 267 170 222 127 b 321 -19 222 23 267 -19 b 419 75 375 -19 419 23 b 321 170 419 127 375 170 z "},"@":{"ha":1224,"x_min":0,"x_max":0,"o":"m 732 572 l 732 520 b 570 588 688 564 632 588 b 311 288 413 588 311 470 b 570 -12 311 105 413 -12 b 769 105 653 -12 724 30 b 942 -3 797 35 857 -3 b 1186 366 1095 -3 1186 135 b 625 881 1186 669 955 881 b 38 295 268 881 38 651 b 633 -294 38 -58 277 -294 b 944 -227 786 -294 909 -246 l 950 -223 l 950 -66 l 932 -76 b 633 -153 900 -94 786 -153 b 189 295 359 -153 189 19 b 625 740 189 569 356 740 b 1045 366 827 740 1045 623 b 953 129 1045 209 1014 129 b 900 228 913 129 900 154 l 900 572 z m 749 288 b 613 138 749 194 698 138 b 481 288 494 138 481 243 b 613 437 481 333 494 437 b 749 288 698 437 749 381 z "},"A":{"ha":881,"x_min":0,"x_max":0,"o":"m 671 0 l 879 0 l 558 844 l 323 844 l 1 0 l 209 0 l 263 154 l 619 154 z m 322 325 l 441 665 l 559 325 z "},"B":{"ha":765,"x_min":0,"x_max":0,"o":"m 611 442 l 611 447 b 733 628 688 474 733 527 b 454 844 733 800 620 844 l 22 844 l 22 0 l 433 0 b 759 248 649 0 759 54 b 611 442 759 360 704 417 z m 220 673 l 461 673 b 541 593 522 673 541 635 b 461 501 541 551 530 501 l 220 501 z m 465 171 l 220 171 l 220 352 l 465 352 b 558 266 544 352 558 309 b 465 171 558 224 547 171 z "},"C":{"ha":864,"x_min":0,"x_max":0,"o":"m 435 153 b 222 422 293 153 222 259 b 435 692 222 586 293 692 b 642 498 559 692 620 614 l 846 498 b 435 862 812 763 619 862 b 21 422 234 862 21 745 b 435 -17 21 100 235 -17 b 846 346 619 -17 812 81 l 642 346 b 435 153 620 231 560 153 z "},"D":{"ha":832,"x_min":0,"x_max":0,"o":"m 371 844 l 54 844 l 54 0 l 371 0 b 809 422 587 0 809 68 b 371 844 809 777 587 844 z m 355 171 l 253 171 l 253 673 l 355 673 b 607 422 495 673 607 640 b 355 171 607 205 495 171 z "},"E":{"ha":743,"x_min":0,"x_max":0,"o":"m 712 171 l 252 171 l 252 348 l 674 348 l 674 519 l 252 519 l 252 673 l 703 673 l 703 844 l 54 844 l 54 0 l 712 0 z "},"F":{"ha":717,"x_min":0,"x_max":0,"o":"m 252 673 l 703 673 l 703 844 l 54 844 l 54 0 l 252 0 l 252 325 l 674 325 l 674 497 l 252 497 z "},"G":{"ha":907,"x_min":0,"x_max":0,"o":"m 444 491 l 444 308 l 663 308 b 462 153 643 220 579 153 b 223 422 310 153 223 256 b 445 692 223 588 297 692 b 646 563 545 692 617 643 l 850 563 b 445 862 804 770 626 862 b 21 422 244 862 21 745 b 462 -17 21 100 239 -17 b 706 124 608 -17 691 59 l 715 0 l 869 0 l 869 491 z "},"H":{"ha":892,"x_min":0,"x_max":0,"o":"m 639 844 l 639 525 l 252 525 l 252 844 l 54 844 l 54 0 l 252 0 l 252 342 l 639 342 l 639 0 l 836 0 l 836 844 z "},"I":{"ha":307,"x_min":0,"x_max":0,"o":"m 54 844 l 54 0 l 252 0 l 252 844 z "},"J":{"ha":739,"x_min":0,"x_max":0,"o":"m 498 844 l 498 387 b 356 153 498 211 450 153 b 196 365 250 153 196 194 l 196 422 l 7 422 l 7 351 b 356 -17 7 77 138 -17 b 696 387 554 -17 696 60 l 696 844 z "},"K":{"ha":826,"x_min":0,"x_max":0,"o":"m 599 0 l 836 0 l 519 519 l 822 844 l 568 844 l 252 494 l 252 844 l 54 844 l 54 0 l 252 0 l 252 234 l 382 374 z "},"L":{"ha":694,"x_min":0,"x_max":0,"o":"m 703 171 l 252 171 l 252 844 l 54 844 l 54 0 l 703 0 z "},"M":{"ha":1086,"x_min":0,"x_max":0,"o":"m 725 844 l 542 248 l 360 844 l 54 844 l 54 0 l 252 0 l 252 648 l 458 0 l 628 0 l 833 648 l 833 0 l 1031 0 l 1031 844 z "},"N":{"ha":871,"x_min":0,"x_max":0,"o":"m 619 844 l 619 282 l 266 844 l 54 844 l 54 0 l 252 0 l 252 562 l 605 0 l 817 0 l 817 844 z "},"O":{"ha":907,"x_min":0,"x_max":0,"o":"m 454 862 b 19 422 253 862 19 745 b 454 -17 19 100 253 -17 b 887 422 655 -17 887 100 b 454 862 887 745 655 862 z m 454 153 b 221 422 306 153 221 255 b 454 692 221 588 306 692 b 686 422 601 692 686 588 b 454 153 686 256 601 153 z "},"P":{"ha":790,"x_min":0,"x_max":0,"o":"m 492 844 l 54 844 l 54 0 l 252 0 l 252 263 l 473 263 b 780 558 665 263 780 356 b 492 844 780 730 684 844 z m 464 433 l 252 433 l 252 673 l 464 673 b 578 558 555 673 578 622 b 464 433 578 495 556 433 z "},"Q":{"ha":914,"x_min":0,"x_max":0,"o":"m 886 422 b 453 862 886 745 654 862 b 19 422 252 862 19 745 b 453 -17 19 100 252 -17 b 666 30 523 -17 599 -2 l 689 0 l 886 0 l 790 125 b 886 422 848 195 886 292 z m 453 153 b 220 422 305 153 220 255 b 453 692 220 588 305 692 b 685 422 601 692 685 588 b 663 289 685 371 677 328 l 614 353 l 497 248 l 555 174 b 453 153 525 160 492 153 z "},"R":{"ha":806,"x_min":0,"x_max":0,"o":"m 578 182 b 587 0 575 106 587 0 b 792 0 587 0 766 0 b 782 208 783 75 782 104 b 650 381 782 336 695 381 b 789 568 716 394 789 438 b 492 844 789 741 685 844 l 54 844 l 54 0 l 252 0 l 252 293 b 483 293 252 293 387 293 b 578 182 533 293 580 259 z m 252 673 l 486 673 b 588 568 577 673 588 608 b 486 463 588 529 576 463 l 252 463 z "},"S":{"ha":833,"x_min":0,"x_max":0,"o":"m 462 515 b 237 609 344 533 237 538 b 401 692 237 662 283 692 b 565 587 510 692 565 644 l 768 587 b 403 862 768 739 679 862 b 41 591 153 862 41 762 b 320 342 41 421 145 378 b 596 236 510 303 596 306 b 429 153 596 180 536 153 b 233 275 331 153 233 181 l 24 275 b 415 -17 24 90 140 -17 b 813 269 672 -17 813 66 b 462 515 813 481 638 486 z "},"T":{"ha":706,"x_min":0,"x_max":0,"o":"m 715 673 l 715 844 l -10 844 l -10 673 l 254 673 l 254 0 l 451 0 l 451 673 z "},"U":{"ha":822,"x_min":0,"x_max":0,"o":"m 581 844 l 581 353 b 411 153 581 181 504 153 b 241 353 316 153 241 181 l 241 844 l 43 844 l 43 353 b 411 -17 43 28 213 -17 b 779 353 608 -17 779 28 l 779 844 z "},"V":{"ha":846,"x_min":0,"x_max":0,"o":"m 654 844 l 423 178 l 191 844 l -17 844 l 305 0 l 540 0 l 862 844 z "},"W":{"ha":1156,"x_min":0,"x_max":0,"o":"m 955 844 l 809 223 l 663 844 l 493 844 l 346 223 l 199 844 l -8 844 l 219 0 l 445 0 l 577 564 l 710 0 l 936 0 l 1163 844 z "},"X":{"ha":811,"x_min":0,"x_max":0,"o":"m 521 440 l 798 844 l 565 844 l 405 587 l 245 844 l 12 844 l 289 440 l -13 0 l 220 0 l 405 293 l 590 0 l 823 0 z "},"Y":{"ha":796,"x_min":0,"x_max":0,"o":"m 595 844 l 397 484 l 199 844 l -24 844 l 298 299 l 298 0 l 496 0 l 496 299 l 818 844 z "},"Z":{"ha":771,"x_min":0,"x_max":0,"o":"m 280 171 l 746 695 l 746 844 l 31 844 l 31 673 l 479 673 l 13 148 l 13 0 l 756 0 l 756 171 z "},"[":{"ha":449,"x_min":0,"x_max":0,"o":"m 457 853 l 457 1013 l 54 1013 l 54 -185 l 457 -185 l 457 -26 l 271 -26 l 271 853 z "},"\\":{"ha":599,"x_min":0,"x_max":0,"o":"m 197 841 l 11 841 l 404 -3 l 591 -3 z "},"]":{"ha":447,"x_min":0,"x_max":0,"o":"m -8 1016 l -8 856 l 176 856 l 176 -23 l -8 -23 l -8 -182 l 393 -182 l 393 1016 z "},"_":{"ha":696,"x_min":0,"x_max":0,"o":"m -1 128 l -1 4 l 693 4 l 693 128 z "},"a":{"ha":668,"x_min":0,"x_max":0,"o":"m 326 661 b 48 447 173 661 63 605 l 208 447 b 326 523 215 488 239 523 b 447 406 434 523 447 469 l 447 391 b 22 169 76 423 22 304 b 242 -17 22 44 118 -17 b 447 87 361 -17 427 48 l 447 0 l 626 0 l 626 406 b 326 661 626 622 478 661 z m 447 268 l 447 193 b 292 104 417 142 362 104 b 196 178 230 104 196 133 b 447 268 196 269 279 277 z "},"b":{"ha":721,"x_min":0,"x_max":0,"o":"m 417 661 b 229 556 338 661 272 621 l 229 844 l 49 844 l 49 0 l 229 0 l 229 87 b 417 -17 272 23 338 -17 b 698 322 572 -17 698 104 b 417 661 698 540 572 661 z m 371 132 b 210 322 261 132 210 217 b 371 512 210 427 261 512 b 528 322 479 512 528 427 b 371 132 528 217 479 132 z "},"c":{"ha":682,"x_min":0,"x_max":0,"o":"m 349 137 b 191 327 240 137 191 223 b 349 518 191 432 240 518 b 500 385 436 518 485 462 l 663 385 b 349 666 635 585 490 666 b 21 327 194 666 21 576 b 349 -11 21 79 194 -11 b 663 268 490 -11 635 68 l 500 268 b 349 137 485 192 436 137 z "},"d":{"ha":719,"x_min":0,"x_max":0,"o":"m 491 844 l 491 556 b 303 661 447 621 382 661 b 22 322 147 661 22 540 b 303 -17 22 104 147 -17 b 491 87 382 -17 447 23 l 491 0 l 670 0 l 670 844 z m 349 132 b 192 322 240 132 192 217 b 349 512 192 427 240 512 b 510 322 459 512 510 427 b 349 132 510 217 459 132 z "},"e":{"ha":668,"x_min":0,"x_max":0,"o":"m 185 282 l 645 282 b 339 669 661 559 494 669 b 21 330 187 669 21 573 b 339 -8 21 88 187 -8 b 637 227 473 -8 603 55 l 478 227 b 339 140 456 176 416 140 b 185 282 247 140 199 200 z m 339 521 b 478 407 419 521 461 475 l 192 407 b 339 521 212 474 259 521 z "},"f":{"ha":408,"x_min":0,"x_max":0,"o":"m 420 729 l 420 880 b 313 890 384 886 354 890 b 94 642 120 890 94 770 l 7 642 l 7 506 l 94 506 l 94 0 l 273 0 l 273 506 l 411 506 l 411 642 l 273 642 b 420 729 273 732 331 741 z "},"g":{"ha":719,"x_min":0,"x_max":0,"o":"m 491 649 l 491 555 b 302 669 447 626 381 669 b 22 325 147 669 22 563 b 301 -7 22 120 147 -7 b 491 74 381 -7 447 20 l 491 34 b 332 -123 491 -86 426 -123 b 196 -60 250 -123 207 -99 l 32 -60 b 332 -276 43 -196 149 -276 b 670 43 483 -275 670 -237 l 670 649 z m 349 142 b 191 325 240 142 191 219 b 349 507 191 431 240 507 b 510 325 459 507 510 431 b 349 142 510 219 459 142 z "},"h":{"ha":685,"x_min":0,"x_max":0,"o":"m 421 662 b 226 552 312 662 248 590 l 226 845 l 47 845 l 47 2 l 226 2 l 226 379 b 347 504 226 450 267 504 b 464 379 427 504 464 450 l 464 2 l 643 2 l 643 427 b 421 662 643 572 557 662 z "},"i":{"ha":275,"x_min":0,"x_max":0,"o":"m 137 708 b 229 801 192 708 229 742 b 137 893 229 860 192 893 b 44 801 82 893 44 860 b 137 708 44 742 82 708 z m 47 1 l 226 1 l 226 644 l 47 644 z "},"j":{"ha":276,"x_min":0,"x_max":0,"o":"m 49 652 l 49 45 b -46 -37 49 -8 40 -44 l -46 -207 b 52 -214 -16 -211 11 -214 b 228 45 220 -214 228 -81 l 228 652 z m 138 716 b 231 809 193 716 231 750 b 138 902 231 868 193 902 b 46 809 83 902 46 868 b 138 716 46 750 83 716 z "},"k":{"ha":660,"x_min":0,"x_max":0,"o":"m 458 0 l 664 0 l 422 385 l 654 643 l 430 643 l 226 406 l 226 844 l 47 844 l 47 0 l 226 0 l 226 165 l 305 253 z "},"l":{"ha":274,"x_min":0,"x_max":0,"o":"m 47 844 l 47 0 l 226 0 l 226 844 z "},"m":{"ha":1026,"x_min":0,"x_max":0,"o":"m 772 661 b 583 546 668 661 597 573 b 393 661 551 618 486 661 b 226 555 303 661 246 592 l 226 642 l 47 642 l 47 0 l 226 0 l 226 377 b 328 503 226 468 273 503 b 426 377 383 503 426 471 l 426 0 l 605 0 l 605 377 b 707 503 605 468 653 503 b 805 377 762 503 805 471 l 805 0 l 985 0 l 985 426 b 772 661 985 570 908 661 z "},"n":{"ha":685,"x_min":0,"x_max":0,"o":"m 421 661 b 226 551 311 661 247 588 l 226 642 l 47 642 l 47 0 l 226 0 l 226 377 b 346 503 226 448 267 503 b 464 377 427 503 464 448 l 464 0 l 643 0 l 643 426 b 421 661 643 570 557 661 z "},"o":{"ha":696,"x_min":0,"x_max":0,"o":"m 348 665 b 21 326 193 665 21 574 b 348 -13 21 78 193 -13 b 675 326 503 -13 675 78 b 348 665 675 574 503 665 z m 348 136 b 190 326 239 136 190 221 b 348 517 190 431 239 517 b 505 326 457 517 505 431 b 348 136 505 221 457 136 z "},"p":{"ha":721,"x_min":0,"x_max":0,"o":"m 417 670 b 228 565 338 670 272 631 l 228 652 l 49 652 l 49 -191 l 228 -191 l 228 97 b 417 -7 272 33 338 -7 b 698 332 571 -7 698 113 b 417 670 698 550 571 670 z m 370 141 b 209 332 261 141 209 227 b 370 522 209 436 261 522 b 528 332 479 522 528 437 b 370 141 528 227 479 141 z "},"q":{"ha":719,"x_min":0,"x_max":0,"o":"m 491 652 l 491 565 b 303 670 447 631 382 670 b 22 332 147 670 22 550 b 303 -7 22 113 147 -7 b 491 97 382 -7 447 33 l 491 -191 l 670 -191 l 670 652 z m 349 141 b 191 332 240 141 191 227 b 349 522 191 436 240 522 b 510 332 459 522 510 437 b 349 141 510 227 459 141 z "},"r":{"ha":465,"x_min":0,"x_max":0,"o":"m 384 661 b 226 532 272 661 247 575 l 226 642 l 47 642 l 47 0 l 226 0 l 226 297 b 346 480 226 397 233 480 b 452 454 393 480 432 467 l 463 454 l 463 650 b 384 661 447 656 419 661 z "},"s":{"ha":682,"x_min":0,"x_max":0,"o":"m 384 404 b 215 472 294 418 215 426 b 328 536 215 513 250 536 b 450 455 408 536 450 498 l 632 454 b 330 668 632 575 546 668 b 38 454 136 668 38 587 b 266 267 38 323 131 293 b 470 185 381 246 470 243 b 350 123 470 140 432 123 b 211 214 275 123 211 142 l 22 216 b 339 -10 22 67 127 -10 b 658 211 540 -10 658 55 b 384 404 658 375 520 383 z "},"t":{"ha":457,"x_min":0,"x_max":0,"o":"m 279 498 l 434 498 l 434 634 l 279 634 l 279 802 l 100 802 l 100 634 l 1 634 l 1 498 l 100 498 l 100 244 b 327 -18 100 82 132 -18 b 434 -8 369 -18 397 -14 l 434 157 b 279 244 316 139 279 156 z "},"u":{"ha":685,"x_min":0,"x_max":0,"o":"m 457 638 l 457 262 b 336 136 457 190 416 136 b 219 262 256 136 219 191 l 219 638 l 40 638 l 40 213 b 262 -21 40 68 126 -21 b 457 88 372 -21 436 51 l 457 -4 l 636 -4 l 636 638 z "},"v":{"ha":642,"x_min":0,"x_max":0,"o":"m 465 642 l 320 218 l 176 642 l -10 642 l 238 0 l 404 0 l 650 642 z "},"w":{"ha":989,"x_min":0,"x_max":0,"o":"m 810 642 l 692 245 l 569 642 l 420 642 l 296 245 l 179 642 l -7 642 l 212 0 l 369 0 l 494 405 l 620 0 l 777 0 l 995 642 z "},"x":{"ha":661,"x_min":0,"x_max":0,"o":"m 438 326 l 652 643 l 445 643 l 330 447 l 216 643 l 8 643 l 222 326 l -7 0 l 200 0 l 330 204 l 460 0 l 668 0 z "},"y":{"ha":643,"x_min":0,"x_max":0,"o":"m 464 645 l 323 229 l 176 645 l -10 645 l 241 19 l 149 -198 l 332 -198 l 650 645 z "},"z":{"ha":628,"x_min":0,"x_max":0,"o":"m 606 160 l 275 160 l 597 494 l 597 642 l 38 642 l 38 483 l 341 483 l 19 148 l 19 0 l 606 0 z "}," ":{"ha":343,"x_min":0,"x_max":0,"o":""},"¡":{"ha":271,"x_min":0,"x_max":0,"o":"m 201 375 l 68 375 l 31 -182 l 238 -182 z m 134 475 b 232 577 189 475 232 522 b 134 679 232 633 189 679 b 37 577 80 679 37 633 b 134 475 37 522 80 475 z "},"¢":{"ha":751,"x_min":0,"x_max":0,"o":"m 423 145 l 423 516 b 533 389 485 501 520 453 l 696 389 b 423 666 670 570 550 653 l 423 752 l 347 752 l 347 668 b 54 330 202 655 54 560 b 347 -6 54 100 202 6 l 347 -92 l 423 -92 l 423 -6 b 696 272 550 8 670 92 l 533 272 b 423 145 520 209 485 160 z m 224 330 b 347 517 224 423 263 501 l 347 143 b 224 330 263 160 224 237 z "},"£":{"ha":772,"x_min":0,"x_max":0,"o":"m 688 205 b 559 152 655 172 618 152 b 342 175 484 152 430 175 b 195 136 284 175 235 158 l 194 137 b 298 335 254 190 298 252 b 297 345 298 339 297 342 l 516 345 l 516 436 l 286 436 b 260 575 275 480 260 511 b 400 703 260 637 296 703 b 534 548 497 703 534 644 l 716 548 b 397 853 716 760 588 853 b 80 574 237 853 80 782 b 110 436 80 516 94 475 l 36 436 l 36 345 l 140 345 b 146 289 144 328 146 310 b 36 124 146 219 102 172 l 72 47 l 108 -31 b 267 29 131 -13 180 29 b 572 -25 382 29 452 -25 b 744 47 673 -25 724 24 z "},"¥":{"ha":832,"x_min":0,"x_max":0,"o":"m 836 842 l 613 842 l 416 483 l 218 842 l -6 842 l 263 389 l 119 389 l 119 297 l 316 297 l 316 240 l 119 240 l 119 148 l 316 148 l 316 -2 l 514 -2 l 514 148 l 712 148 l 712 240 l 514 240 l 514 297 l 712 297 l 712 389 l 568 389 z "},"©":{"ha":915,"x_min":0,"x_max":0,"o":"m 458 861 b 32 421 223 861 32 671 b 458 -18 32 170 223 -18 b 883 421 692 -18 883 170 b 458 861 883 671 692 861 z m 458 51 b 106 421 265 51 106 210 b 458 792 106 633 265 792 b 810 421 651 792 810 633 b 458 51 810 210 651 51 z m 467 556 b 570 459 530 556 559 517 l 673 459 b 467 641 656 592 559 641 b 260 421 367 641 260 582 b 467 201 260 260 367 201 b 673 383 559 201 656 251 l 570 383 b 467 287 559 326 530 287 b 361 421 396 287 361 340 b 467 556 361 503 396 556 z "},"­":{"ha":0,"x_min":0,"x_max":0,"o":""},"®":{"ha":915,"x_min":0,"x_max":0,"o":"m 458 859 b 32 419 223 859 32 670 b 458 -19 32 169 223 -19 b 882 419 691 -19 882 169 b 458 859 882 670 691 859 z m 458 49 b 105 419 264 49 105 208 b 458 790 105 631 264 790 b 809 419 650 790 809 631 b 458 49 809 208 650 49 z m 656 488 b 510 627 656 572 604 627 l 281 627 l 281 213 l 379 213 l 379 348 l 492 348 l 562 213 l 667 213 l 587 364 b 656 488 630 384 656 424 z m 507 431 l 379 431 l 379 543 l 507 543 b 558 488 552 543 558 507 b 507 431 558 467 552 431 z "},"°":{"ha":428,"x_min":0,"x_max":0,"o":"m 214 850 b 22 658 105 850 22 768 b 214 466 22 550 105 466 b 406 658 324 466 406 550 b 214 850 406 768 324 850 z m 214 558 b 114 658 155 558 114 600 b 214 758 114 717 155 758 b 314 658 274 758 314 717 b 214 558 314 600 274 558 z "},"¿":{"ha":656,"x_min":0,"x_max":0,"o":"m 472 92 b 333 -51 468 0 426 -51 b 191 45 241 -51 191 -19 b 427 375 191 174 427 127 l 267 375 b 13 45 267 235 13 283 b 338 -200 13 -164 178 -200 b 653 92 510 -200 642 -118 z m 344 475 b 442 577 398 475 442 522 b 344 679 442 633 398 679 b 246 577 290 679 246 633 b 344 475 246 522 290 475 z "},"À":{"ha":986,"x_min":0,"x_max":0,"o":"m 724 0 l 932 0 l 611 844 l 376 844 l 54 0 l 262 0 l 316 154 l 671 154 z m 480 1091 l 282 1091 l 423 912 l 564 912 z m 375 326 l 493 665 l 612 326 z "},"Á":{"ha":986,"x_min":0,"x_max":0,"o":"m 724 -1 l 932 -1 l 611 843 l 376 843 l 54 -1 l 262 -1 l 316 154 l 671 154 z m 375 325 l 494 665 l 612 325 z m 505 1090 l 421 912 l 562 912 l 703 1090 z "},"Â":{"ha":986,"x_min":0,"x_max":0,"o":"m 724 0 l 932 0 l 611 844 l 376 844 l 54 0 l 262 0 l 316 154 l 671 154 z m 741 912 l 594 1091 l 392 1091 l 245 912 l 415 912 l 493 1019 l 571 912 z m 375 326 l 494 665 l 612 326 z "},"Ã":{"ha":986,"x_min":0,"x_max":0,"o":"m 724 0 l 932 0 l 611 844 l 376 844 l 54 0 l 262 0 l 316 154 l 671 154 z m 602 1086 b 572 1027 602 1067 602 1027 b 385 1096 520 1027 479 1096 b 278 919 310 1096 278 1019 l 385 919 b 414 976 385 945 389 976 b 601 909 463 976 509 909 b 708 1086 694 909 708 1011 z m 375 326 l 493 665 l 612 326 z "},"Ä":{"ha":986,"x_min":0,"x_max":0,"o":"m 724 0 l 932 0 l 611 844 l 376 844 l 54 0 l 262 0 l 316 154 l 671 154 z m 372 1097 b 294 1002 329 1097 294 1055 b 372 906 294 950 329 906 b 451 1002 416 906 451 950 b 372 1097 451 1055 416 1097 z m 375 326 l 494 665 l 612 326 z m 614 1097 b 535 1002 570 1097 535 1055 b 614 906 535 950 570 906 b 692 1002 657 906 692 950 b 614 1097 692 1055 657 1097 z "},"Å":{"ha":986,"x_min":0,"x_max":0,"o":"m 724 0 l 932 0 l 611 844 l 376 844 l 54 0 l 262 0 l 316 154 l 671 154 z m 493 1198 b 367 1046 421 1198 367 1133 b 493 894 367 961 421 894 b 618 1046 564 894 618 961 b 493 1198 618 1133 564 1198 z m 375 326 l 494 665 l 612 326 z m 493 975 b 433 1046 458 975 433 1005 b 493 1119 433 1087 458 1119 b 551 1046 526 1119 551 1087 b 493 975 551 1005 526 975 z "},"Æ":{"ha":1361,"x_min":0,"x_max":0,"o":"m 1306 171 l 845 171 l 845 347 l 1268 347 l 1268 518 l 845 518 l 845 671 l 1297 671 l 1297 842 l 498 842 l 54 -1 l 262 -1 l 337 153 l 648 153 l 648 -1 l 1306 -1 z m 593 671 l 648 671 l 648 324 l 423 324 z "},"Ç":{"ha":935,"x_min":0,"x_max":0,"o":"m 469 169 b 255 438 327 169 255 275 b 469 708 255 602 327 708 b 675 514 593 708 654 629 l 879 514 b 469 878 845 779 653 878 b 54 438 268 878 54 761 b 425 1 54 140 238 17 l 391 -53 l 391 -113 b 527 -134 451 -103 527 -91 b 458 -172 527 -166 501 -172 b 369 -152 423 -172 389 -160 l 369 -244 b 496 -263 405 -255 450 -263 b 655 -134 589 -263 655 -234 b 493 -41 655 -24 555 -20 l 519 1 b 879 362 686 18 848 122 l 675 362 b 469 169 654 247 593 169 z "},"È":{"ha":767,"x_min":0,"x_max":0,"o":"m 712 171 l 252 171 l 252 348 l 674 348 l 674 520 l 252 520 l 252 673 l 703 673 l 703 844 l 54 844 l 54 0 l 712 0 z m 400 1091 l 202 1091 l 343 912 l 485 912 z "},"É":{"ha":767,"x_min":0,"x_max":0,"o":"m 712 170 l 252 170 l 252 348 l 674 348 l 674 519 l 252 519 l 252 672 l 703 672 l 703 843 l 54 843 l 54 -1 l 712 -1 z m 386 1090 l 302 912 l 443 912 l 584 1090 z "},"Ê":{"ha":767,"x_min":0,"x_max":0,"o":"m 712 171 l 252 171 l 252 348 l 674 348 l 674 520 l 252 520 l 252 673 l 703 673 l 703 844 l 54 844 l 54 0 l 712 0 z m 632 912 l 485 1091 l 283 1091 l 136 912 l 306 912 l 383 1019 l 462 912 z "},"Ë":{"ha":767,"x_min":0,"x_max":0,"o":"m 712 171 l 252 171 l 252 348 l 674 348 l 674 520 l 252 520 l 252 673 l 703 673 l 703 844 l 54 844 l 54 0 l 712 0 z m 263 1097 b 184 1002 220 1097 184 1055 b 263 906 184 950 220 906 b 341 1002 307 906 341 950 b 263 1097 341 1055 307 1097 z m 504 1097 b 426 1002 461 1097 426 1055 b 504 906 426 950 461 906 b 583 1002 548 906 583 950 b 504 1097 583 1055 548 1097 z "},"Ì":{"ha":418,"x_min":0,"x_max":0,"o":"m 252 1091 l 54 1091 l 195 912 l 336 912 z m 165 844 l 165 0 l 363 0 l 363 844 z "},"Í":{"ha":419,"x_min":0,"x_max":0,"o":"m 54 843 l 54 -1 l 252 -1 l 252 843 z m 166 1090 l 82 912 l 223 912 l 364 1090 z "},"Î":{"ha":606,"x_min":0,"x_max":0,"o":"m 550 912 l 403 1091 l 201 1091 l 54 912 l 224 912 l 302 1019 l 380 912 z m 203 844 l 203 0 l 401 0 l 401 844 z "},"Ï":{"ha":507,"x_min":0,"x_max":0,"o":"m 133 1097 b 54 1002 90 1097 54 1055 b 133 906 54 950 90 906 b 211 1002 176 906 211 950 b 133 1097 211 1055 176 1097 z m 155 844 l 155 0 l 352 0 l 352 844 z m 374 1097 b 296 1002 330 1097 296 1055 b 374 906 296 950 330 906 b 453 1002 418 906 453 950 b 374 1097 453 1055 418 1097 z "},"Ð":{"ha":965,"x_min":0,"x_max":0,"o":"m 473 843 l 139 843 l 139 490 l 54 490 l 54 353 l 139 353 l 139 -1 l 473 -1 b 911 421 690 -1 911 67 b 473 843 911 777 690 843 z m 458 172 l 336 172 l 336 352 l 549 352 l 549 490 l 336 490 l 336 672 l 458 672 b 710 421 598 672 710 639 b 458 172 710 204 598 172 z "},"Ñ":{"ha":871,"x_min":0,"x_max":0,"o":"m 619 844 l 619 282 l 266 844 l 54 844 l 54 0 l 252 0 l 252 562 l 605 0 l 817 0 l 817 844 z m 544 1086 b 514 1027 544 1067 544 1027 b 327 1096 463 1027 421 1096 b 220 919 252 1096 220 1019 l 327 919 b 356 976 327 945 331 976 b 543 909 405 976 452 909 b 651 1086 637 909 651 1011 z "},"Ò":{"ha":976,"x_min":0,"x_max":0,"o":"m 489 870 b 54 430 288 870 54 753 b 489 -8 54 108 288 -8 b 922 430 689 -8 922 108 b 489 870 922 753 689 870 z m 489 161 b 256 430 340 161 256 264 b 489 700 256 597 340 700 b 721 430 636 700 721 597 b 489 161 721 264 636 161 z m 475 1099 l 277 1099 l 418 921 l 559 921 z "},"Ó":{"ha":976,"x_min":0,"x_max":0,"o":"m 489 869 b 54 430 288 869 54 753 b 489 -9 54 108 288 -9 b 922 430 689 -9 922 108 b 489 869 922 753 689 869 z m 489 161 b 256 430 340 161 256 263 b 489 700 256 596 340 700 b 721 430 636 700 721 596 b 489 161 721 263 636 161 z m 500 1098 l 416 920 l 557 920 l 698 1098 z "},"Ô":{"ha":976,"x_min":0,"x_max":0,"o":"m 489 870 b 54 430 288 870 54 753 b 489 -8 54 108 288 -8 b 922 430 689 -8 922 108 b 489 870 922 753 689 870 z m 736 921 l 589 1099 l 387 1099 l 240 921 l 410 921 l 488 1027 l 566 921 z m 489 161 b 256 430 340 161 256 264 b 489 700 256 597 340 700 b 721 430 636 700 721 597 b 489 161 721 264 636 161 z "},"Õ":{"ha":976,"x_min":0,"x_max":0,"o":"m 489 870 b 54 430 288 870 54 753 b 489 -8 54 108 288 -8 b 922 430 689 -8 922 108 b 489 870 922 753 689 870 z m 489 161 b 256 430 340 161 256 264 b 489 700 256 597 340 700 b 721 430 636 700 721 597 b 489 161 721 264 636 162 z m 597 1094 b 567 1035 597 1075 597 1035 b 380 1104 515 1035 474 1104 b 273 927 305 1104 273 1027 l 380 927 b 409 985 380 953 384 985 b 596 917 458 985 504 917 b 703 1094 689 917 703 1020 z "},"Ö":{"ha":976,"x_min":0,"x_max":0,"o":"m 489 874 b 54 434 288 874 54 758 b 489 -4 54 113 288 -4 b 922 434 689 -4 922 113 b 489 874 922 758 689 874 z m 489 166 b 256 434 340 166 256 268 b 489 704 256 601 340 704 b 721 434 636 704 721 601 b 489 166 721 268 636 166 z m 367 1109 b 289 1014 325 1109 289 1067 b 367 919 289 962 325 919 b 446 1014 411 919 446 962 b 367 1109 446 1067 411 1109 z m 609 1109 b 530 1014 565 1109 530 1067 b 609 919 530 962 565 919 b 687 1014 653 919 687 962 b 609 1109 687 1067 653 1109 z "},"×":{"ha":540,"x_min":0,"x_max":0,"o":"m 519 595 l 414 700 l 270 556 l 126 700 l 21 595 l 164 451 l 21 308 l 126 203 l 270 347 l 414 203 l 519 308 l 375 451 z "},"Ø":{"ha":976,"x_min":0,"x_max":0,"o":"m 825 720 l 891 794 l 820 885 l 740 795 b 488 865 663 843 573 865 b 54 425 287 865 54 748 b 150 131 54 296 92 199 l 84 57 l 155 -36 l 236 56 b 487 -14 312 6 403 -14 b 922 425 688 -14 922 103 b 825 720 922 555 884 651 z m 255 425 b 487 695 255 591 340 695 b 619 659 539 695 583 681 l 283 281 b 255 425 265 321 255 369 z m 487 156 b 357 192 436 156 392 168 l 692 569 b 720 425 710 530 720 481 b 487 156 720 258 636 156 z "},"Ù":{"ha":844,"x_min":0,"x_max":0,"o":"m 592 852 l 592 362 b 422 161 592 189 515 161 b 252 362 328 161 252 189 l 252 852 l 54 852 l 54 362 b 422 -8 54 36 224 -8 b 790 362 619 -8 790 36 l 790 852 z m 428 1099 l 230 1099 l 371 921 l 512 921 z "},"Ú":{"ha":844,"x_min":0,"x_max":0,"o":"m 592 851 l 592 361 b 422 161 592 188 515 161 b 252 361 328 161 252 188 l 252 851 l 54 851 l 54 361 b 422 -9 54 35 224 -9 b 790 361 619 -9 790 35 l 790 851 z m 424 1098 l 339 920 l 481 920 l 622 1098 z "},"Û":{"ha":844,"x_min":0,"x_max":0,"o":"m 592 852 l 592 362 b 422 161 592 189 515 161 b 252 362 328 161 252 189 l 252 852 l 54 852 l 54 362 b 422 -8 54 36 224 -8 b 790 362 619 -8 790 36 l 790 852 z m 669 921 l 522 1099 l 321 1099 l 173 921 l 343 921 l 421 1027 l 499 921 z "},"Ü":{"ha":844,"x_min":0,"x_max":0,"o":"m 592 856 l 592 366 b 422 166 592 193 515 166 b 252 366 328 166 252 193 l 252 856 l 54 856 l 54 366 b 422 -4 54 40 224 -4 b 790 366 619 -4 790 40 l 790 856 z m 301 1109 b 222 1014 258 1109 222 1067 b 301 919 222 962 258 919 b 379 1014 344 919 379 962 b 301 1109 379 1067 344 1109 z m 542 1109 b 464 1014 498 1109 464 1067 b 542 919 464 962 498 919 b 621 1014 586 919 621 962 b 542 1109 621 1067 586 1109 z "},"Ý":{"ha":951,"x_min":0,"x_max":0,"o":"m 672 851 l 475 492 l 277 851 l 54 851 l 376 307 l 376 8 l 574 8 l 574 307 l 896 851 z m 488 1098 l 403 920 l 544 920 l 685 1098 z "},"ß":{"ha":822,"x_min":0,"x_max":0,"o":"m 601 456 b 704 623 658 486 704 537 b 386 856 704 813 547 856 b 54 551 210 856 54 790 l 54 -5 l 234 -5 l 234 539 b 383 706 234 677 292 706 b 529 601 493 706 529 661 b 431 511 529 544 496 511 l 325 511 l 325 361 l 449 361 b 584 260 521 361 584 341 b 444 127 584 155 515 127 b 325 142 390 127 339 139 l 325 -5 b 462 -22 356 -14 416 -22 b 767 253 641 -22 767 60 b 601 456 767 382 688 435 z "},"à":{"ha":713,"x_min":0,"x_max":0,"o":"m 358 663 b 80 450 205 663 95 608 l 240 450 b 358 526 247 491 271 526 b 479 409 466 526 479 472 l 479 393 b 54 172 108 426 54 307 b 274 -14 54 46 150 -14 b 479 90 393 -14 459 51 l 479 3 l 657 3 l 657 409 b 358 663 657 625 510 663 z m 362 901 l 164 901 l 306 722 l 447 722 z m 479 270 l 479 196 b 324 107 449 145 394 107 b 228 181 262 107 228 136 b 479 270 228 272 311 280 z "},"á":{"ha":713,"x_min":0,"x_max":0,"o":"m 358 664 b 80 451 205 664 95 609 l 240 451 b 358 527 247 492 271 527 b 479 410 466 527 479 472 l 479 394 b 54 172 108 427 54 307 b 274 -13 54 47 150 -13 b 479 90 393 -13 459 52 l 479 4 l 657 4 l 657 410 b 358 664 657 625 510 664 z m 479 271 l 479 196 b 324 107 449 146 394 107 b 228 182 262 107 228 136 b 479 271 228 272 311 281 z m 378 901 l 294 723 l 435 723 l 576 901 z "},"â":{"ha":713,"x_min":0,"x_max":0,"o":"m 358 669 b 80 456 205 669 95 613 l 240 456 b 358 532 247 497 271 532 b 479 415 466 532 479 477 l 479 399 b 54 177 108 431 54 312 b 274 -8 54 52 150 -8 b 479 95 393 -8 459 57 l 479 8 l 657 8 l 657 415 b 358 669 657 630 510 669 z m 624 728 l 477 906 l 275 906 l 128 728 l 298 728 l 375 834 l 454 728 z m 479 276 l 479 201 b 324 112 449 151 394 112 b 228 187 262 112 228 141 b 479 276 228 277 311 286 z "},"ã":{"ha":713,"x_min":0,"x_max":0,"o":"m 358 669 b 80 456 205 669 95 613 l 240 456 b 358 532 247 497 271 532 b 479 415 466 532 479 477 l 479 399 b 54 177 108 431 54 312 b 274 -8 54 52 150 -8 b 479 95 393 -8 459 57 l 479 8 l 657 8 l 657 415 b 358 669 657 630 510 669 z m 485 902 b 455 842 485 882 485 842 b 268 911 403 842 361 911 b 161 734 192 911 161 834 l 268 734 b 297 792 268 761 272 792 b 484 724 345 792 392 724 b 591 902 577 724 591 827 z m 479 276 l 479 201 b 324 112 449 151 394 112 b 228 187 262 112 228 141 b 479 276 228 277 311 286 z "},"ä":{"ha":713,"x_min":0,"x_max":0,"o":"m 358 663 b 80 450 205 663 95 608 l 240 450 b 358 526 247 491 271 526 b 479 409 466 526 479 472 l 479 393 b 54 172 108 426 54 307 b 274 -14 54 46 150 -14 b 479 90 393 -14 459 51 l 479 3 l 657 3 l 657 409 b 358 663 657 625 510 663 z m 255 907 b 176 812 212 907 176 865 b 255 716 176 760 212 716 b 333 812 299 716 333 760 b 255 907 333 865 299 907 z m 479 270 l 479 196 b 324 107 449 145 394 107 b 228 181 262 107 228 136 b 479 271 228 272 311 280 z m 496 907 b 418 812 453 907 418 865 b 496 716 418 760 453 716 b 575 812 540 716 575 760 b 496 907 575 865 540 907 z "},"å":{"ha":713,"x_min":0,"x_max":0,"o":"m 358 663 b 80 450 205 663 95 608 l 240 450 b 358 526 247 491 271 526 b 479 409 466 526 479 472 l 479 393 b 54 172 108 426 54 307 b 274 -14 54 46 150 -14 b 479 90 393 -14 459 51 l 479 3 l 657 3 l 657 409 b 358 663 657 625 510 663 z m 479 271 l 479 196 b 324 107 449 145 394 107 b 228 181 262 107 228 136 b 479 271 228 272 311 280 z m 375 1008 b 250 856 304 1008 250 943 b 375 704 250 771 304 704 b 500 856 447 704 500 771 b 375 1008 500 943 447 1008 z m 375 785 b 316 856 340 785 316 815 b 375 929 316 897 340 929 b 434 856 409 929 434 897 b 375 785 434 815 409 785 z "},"æ":{"ha":1176,"x_min":0,"x_max":0,"o":"m 1121 290 b 815 677 1137 568 970 677 b 593 594 736 677 655 652 b 358 677 543 662 456 677 b 80 464 205 677 95 622 l 240 464 b 358 540 247 505 271 540 b 478 423 465 540 478 486 l 478 407 b 54 187 108 440 54 322 b 293 0 54 60 168 0 b 554 129 391 0 494 34 b 815 0 616 39 718 0 b 1113 235 949 0 1079 64 l 954 235 b 815 148 932 184 892 148 b 660 290 723 148 674 210 z m 478 213 b 323 121 458 163 395 121 b 228 195 262 121 228 149 b 478 284 228 286 311 294 z m 667 417 b 815 529 687 482 735 529 b 954 417 895 529 937 483 z "},"ç":{"ha":751,"x_min":0,"x_max":0,"o":"m 394 -45 l 419 -3 b 696 274 547 9 670 91 l 533 274 b 382 143 518 199 470 143 b 224 334 273 143 224 229 b 382 524 224 438 273 524 b 533 391 470 524 518 469 l 696 391 b 382 672 668 592 523 672 b 54 334 227 672 54 582 b 326 0 54 115 187 19 l 292 -57 l 292 -117 b 427 -138 350 -108 427 -95 b 358 -176 427 -170 401 -176 b 269 -156 323 -176 289 -164 l 269 -249 b 396 -267 305 -259 349 -267 b 556 -138 489 -267 556 -238 b 394 -45 556 -28 455 -24 z "},"è":{"ha":735,"x_min":0,"x_max":0,"o":"m 218 282 l 678 282 b 372 669 694 559 527 669 b 54 330 220 669 54 572 b 372 -8 54 88 220 -8 b 670 227 506 -8 637 55 l 511 227 b 372 140 489 176 450 140 b 218 282 281 140 232 200 z m 364 906 l 166 906 l 308 728 l 449 728 z m 372 521 b 511 407 453 521 494 475 l 225 407 b 372 521 245 474 293 521 z "},"é":{"ha":735,"x_min":0,"x_max":0,"o":"m 218 281 l 678 281 b 372 668 694 558 527 668 b 54 330 220 668 54 572 b 372 -9 54 87 220 -9 b 670 226 506 -9 637 55 l 511 226 b 372 139 489 175 450 139 b 218 281 281 139 232 199 z m 372 520 b 511 407 453 520 494 474 l 225 407 b 372 520 245 473 293 520 z m 380 906 l 296 727 l 437 727 l 578 906 z "},"ê":{"ha":735,"x_min":0,"x_max":0,"o":"m 218 282 l 678 282 b 372 669 694 559 527 669 b 54 330 220 669 54 572 b 372 -8 54 88 220 -8 b 670 227 506 -8 637 55 l 511 227 b 372 140 489 176 450 140 b 218 282 281 140 232 200 z m 620 728 l 473 906 l 271 906 l 124 728 l 294 728 l 371 834 l 450 728 z m 372 521 b 511 407 453 521 494 475 l 225 407 b 372 521 245 474 293 521 z "},"ë":{"ha":735,"x_min":0,"x_max":0,"o":"m 218 286 l 678 286 b 372 673 694 564 527 673 b 54 335 220 673 54 577 b 372 -4 54 92 220 -4 b 670 231 506 -4 637 60 l 511 231 b 372 144 489 180 450 144 b 218 286 281 144 232 204 z m 251 917 b 172 821 208 917 172 874 b 251 726 172 770 208 726 b 329 821 295 726 329 770 b 251 917 329 874 295 917 z m 372 525 b 511 412 453 525 494 479 l 225 412 b 372 525 245 478 293 525 z m 492 917 b 414 821 449 917 414 874 b 492 726 414 770 449 726 b 571 821 536 726 571 770 b 492 917 571 874 536 917 z "},"ì":{"ha":410,"x_min":0,"x_max":0,"o":"m 252 898 l 54 898 l 195 720 l 336 720 z m 175 0 l 354 0 l 354 643 l 175 643 z "},"í":{"ha":410,"x_min":0,"x_max":0,"o":"m 54 -1 l 233 -1 l 233 642 l 54 642 z m 157 897 l 72 719 l 213 719 l 354 897 z "},"î":{"ha":606,"x_min":0,"x_max":0,"o":"m 550 720 l 403 898 l 201 898 l 54 720 l 224 720 l 302 826 l 380 720 z m 212 0 l 391 0 l 391 643 l 212 643 z "},"ï":{"ha":507,"x_min":0,"x_max":0,"o":"m 133 904 b 54 809 90 904 54 862 b 133 714 54 757 90 714 b 211 809 176 714 211 757 b 133 904 211 862 176 904 z m 164 0 l 342 0 l 342 643 l 164 643 z m 374 904 b 296 809 330 904 296 862 b 374 714 296 757 330 714 b 453 809 418 714 453 757 b 374 904 453 862 418 904 z "},"ð":{"ha":774,"x_min":0,"x_max":0,"o":"m 484 803 l 564 871 l 521 947 l 399 844 b 148 892 315 878 224 892 l 127 751 b 268 736 171 751 220 747 l 190 672 l 233 596 l 365 706 b 544 487 458 666 531 598 b 332 578 517 525 443 578 b 54 298 187 578 54 495 b 381 -9 54 68 205 -9 b 718 361 589 -9 718 117 b 484 803 718 587 615 725 z m 374 149 b 227 292 276 149 227 202 b 374 431 227 384 283 431 b 534 292 466 431 534 392 b 374 149 534 193 474 149 z "},"ñ":{"ha":704,"x_min":0,"x_max":0,"o":"m 428 669 b 233 559 318 669 254 597 l 233 651 l 54 651 l 54 8 l 233 8 l 233 386 b 353 511 233 457 274 511 b 471 386 434 511 471 457 l 471 8 l 650 8 l 650 434 b 428 669 650 579 564 669 z m 461 902 b 431 842 461 882 461 842 b 244 911 379 842 337 911 b 137 734 168 911 137 834 l 244 734 b 273 792 244 761 248 792 b 460 724 322 792 368 724 b 567 902 553 724 567 827 z "},"ò":{"ha":763,"x_min":0,"x_max":0,"o":"m 381 669 b 54 330 226 669 54 579 b 381 -8 54 82 226 -8 b 708 330 536 -8 708 82 b 381 669 708 579 536 669 z m 368 906 l 170 906 l 312 728 l 453 728 z m 381 140 b 223 330 272 140 223 225 b 381 521 223 435 272 521 b 538 330 491 521 538 435 b 381 140 538 225 491 140 z "},"ó":{"ha":763,"x_min":0,"x_max":0,"o":"m 381 668 b 54 330 226 668 54 578 b 381 -9 54 81 226 -9 b 708 330 536 -9 708 81 b 381 668 708 578 536 668 z m 381 139 b 223 330 272 139 223 225 b 381 520 223 434 272 520 b 538 329 491 520 538 434 b 381 139 538 225 491 139 z m 384 906 l 300 727 l 441 727 l 582 906 z "},"ô":{"ha":763,"x_min":0,"x_max":0,"o":"m 381 669 b 54 330 226 669 54 579 b 381 -8 54 82 226 -8 b 708 330 536 -8 708 82 b 381 669 708 579 536 669 z m 630 728 l 483 906 l 281 906 l 134 728 l 304 728 l 381 834 l 460 728 z m 381 140 b 223 330 272 140 223 225 b 381 521 223 435 272 521 b 538 330 491 521 538 435 b 381 140 538 225 491 140 z "},"õ":{"ha":763,"x_min":0,"x_max":0,"o":"m 381 669 b 54 330 226 669 54 579 b 381 -8 54 82 226 -8 b 708 330 536 -8 708 82 b 381 669 708 579 536 669 z m 491 902 b 461 842 491 882 491 842 b 274 911 409 842 367 911 b 166 734 198 911 166 834 l 274 734 b 303 792 274 761 278 792 b 490 724 351 792 398 724 b 597 902 583 724 597 827 z m 381 140 b 223 330 272 140 223 225 b 381 521 223 435 272 521 b 538 330 491 521 538 435 b 381 140 538 225 491 140 z "},"ö":{"ha":763,"x_min":0,"x_max":0,"o":"m 381 673 b 54 334 226 673 54 583 b 381 -4 54 86 226 -4 b 708 334 536 -4 708 86 b 381 673 708 583 536 673 z m 261 917 b 182 821 218 917 182 874 b 261 726 182 770 218 726 b 339 821 305 726 339 770 b 261 917 339 874 305 917 z m 381 144 b 223 334 272 144 223 230 b 381 525 223 439 272 525 b 538 334 491 525 538 439 b 381 144 538 230 491 144 z m 502 917 b 424 821 459 917 424 874 b 502 726 424 770 459 726 b 581 821 546 726 581 770 b 502 917 581 874 546 917 z "},"÷":{"ha":569,"x_min":0,"x_max":0,"o":"m 7 433 l 7 284 l 561 284 l 561 433 z m 284 510 b 376 603 335 510 376 551 b 284 695 376 654 335 695 b 193 603 234 695 193 654 b 284 510 193 551 234 510 z m 284 206 b 193 114 234 206 193 166 b 284 22 193 63 234 22 b 376 114 335 22 376 63 b 284 206 376 166 335 207 z "},"ø":{"ha":763,"x_min":0,"x_max":0,"o":"m 639 558 l 701 630 l 651 697 l 578 615 b 381 672 519 655 449 672 b 54 333 227 672 54 581 b 125 108 54 234 82 161 l 61 37 l 113 -31 l 185 51 b 381 -6 244 11 315 -6 b 708 333 536 -6 708 85 b 639 558 708 432 681 505 z m 224 333 b 381 523 224 438 273 523 b 472 496 418 523 448 513 l 241 238 b 224 333 229 266 224 298 z m 381 143 b 292 169 344 143 315 152 l 522 428 b 539 333 533 401 539 368 b 381 143 539 228 491 143 z "},"ù":{"ha":704,"x_min":0,"x_max":0,"o":"m 471 651 l 471 275 b 350 148 471 202 430 148 b 233 275 270 148 233 204 l 233 651 l 54 651 l 54 225 b 276 -8 54 81 140 -8 b 471 100 386 -8 450 64 l 471 8 l 650 8 l 650 651 z m 348 906 l 151 906 l 292 728 l 433 728 z "},"ú":{"ha":704,"x_min":0,"x_max":0,"o":"m 471 650 l 471 274 b 350 147 471 202 430 147 b 233 274 270 147 233 203 l 233 650 l 54 650 l 54 225 b 276 -9 54 80 140 -9 b 471 99 386 -9 450 63 l 471 8 l 650 8 l 650 650 z m 359 906 l 275 727 l 416 727 l 557 906 z "},"û":{"ha":704,"x_min":0,"x_max":0,"o":"m 471 651 l 471 275 b 350 148 471 202 430 148 b 233 275 270 148 233 204 l 233 651 l 54 651 l 54 225 b 276 -8 54 81 140 -8 b 471 100 386 -8 450 64 l 471 8 l 650 8 l 650 651 z m 600 728 l 453 906 l 251 906 l 104 728 l 274 728 l 351 834 l 430 728 z "},"ü":{"ha":704,"x_min":0,"x_max":0,"o":"m 471 655 l 471 279 b 350 152 471 207 430 152 b 233 279 270 152 233 208 l 233 655 l 54 655 l 54 230 b 276 -4 54 85 140 -4 b 471 104 386 -4 450 68 l 471 13 l 650 13 l 650 655 z m 231 917 b 153 821 188 917 153 874 b 231 726 153 770 188 726 b 310 821 275 726 310 770 b 231 917 310 874 275 917 z m 473 917 b 394 821 429 917 394 874 b 473 726 394 770 429 726 b 551 821 516 726 551 770 b 473 917 551 874 516 917 z "},"ý":{"ha":769,"x_min":0,"x_max":0,"o":"m 528 650 l 387 234 l 240 650 l 54 650 l 305 23 l 213 -194 l 396 -194 l 714 650 z m 397 906 l 313 727 l 454 727 l 595 906 z "},"ÿ":{"ha":769,"x_min":0,"x_max":0,"o":"m 528 655 l 387 239 l 240 655 l 54 655 l 305 28 l 213 -189 l 396 -189 l 714 655 z m 267 917 b 188 821 224 917 188 874 b 267 726 188 770 224 726 b 345 821 311 726 345 770 b 267 917 345 874 311 917 z m 508 917 b 430 821 465 917 430 874 b 508 726 430 770 465 726 b 587 821 552 726 587 770 b 508 917 587 874 552 917 z "},"Œ":{"ha":1314,"x_min":0,"x_max":0,"o":"m 1259 173 l 799 173 l 799 349 l 1221 349 l 1221 520 l 799 520 l 799 673 l 1250 673 l 1250 844 l 520 844 b 54 422 304 844 54 778 b 520 0 54 68 304 0 l 1259 0 z m 536 173 b 255 422 396 173 255 205 b 536 673 255 640 396 673 l 601 673 l 601 173 z "},"œ":{"ha":1228,"x_min":0,"x_max":0,"o":"m 713 284 l 1172 284 b 866 670 1188 561 1021 670 b 626 567 780 670 688 639 b 382 670 564 640 472 670 b 54 332 227 670 54 580 b 382 -7 54 83 227 -7 b 626 97 472 -7 564 23 b 866 -7 688 24 780 -7 b 1165 228 1000 -7 1131 57 l 1005 228 b 866 141 984 177 944 141 b 713 284 775 141 726 203 z m 382 141 b 224 332 273 141 224 227 b 382 522 224 437 273 522 b 539 332 491 522 539 437 b 382 141 539 227 491 141 z m 866 522 b 1005 410 947 522 990 476 l 719 410 b 866 522 739 475 787 522 z "},"Ÿ":{"ha":951,"x_min":0,"x_max":0,"o":"m 672 844 l 475 485 l 277 844 l 54 844 l 376 299 l 376 0 l 574 0 l 574 299 l 896 844 z m 354 1097 b 276 1002 312 1097 276 1055 b 354 906 276 950 312 906 b 433 1002 398 906 433 950 b 354 1097 433 1055 398 1097 z m 596 1097 b 517 1002 552 1097 517 1055 b 596 906 517 950 552 906 b 674 1002 640 906 674 950 b 596 1097 674 1055 640 1097 z "},"—":{"ha":642,"x_min":0,"x_max":0,"o":"m 11 514 l 11 365 l 629 365 l 629 514 z "},"€":{"ha":979,"x_min":0,"x_max":0,"o":"m 534 153 b 337 301 431 153 365 208 l 616 301 l 616 393 l 321 393 b 320 422 320 402 320 412 b 321 451 320 431 320 441 l 616 451 l 616 542 l 337 542 b 534 692 365 635 431 692 b 741 498 658 692 719 613 l 945 498 b 534 862 911 763 718 862 b 131 542 361 862 177 774 l 22 542 l 22 451 l 120 451 b 120 422 120 441 120 431 b 120 393 120 412 120 402 l 22 393 l 22 301 l 131 301 b 534 -17 177 70 361 -17 b 945 346 718 -17 911 82 l 741 346 b 534 153 719 231 658 153 z "},"™":{"ha":840,"x_min":0,"x_max":0,"o":"m 677 845 l 597 586 l 518 845 l 384 845 l 384 478 l 471 478 l 471 760 l 560 478 l 634 478 l 724 760 l 724 478 l 810 478 l 810 845 z m 10 771 l 124 771 l 124 478 l 211 478 l 211 771 l 325 771 l 325 845 l 10 845 z "},"←":{"ha":1006,"x_min":0,"x_max":0,"o":"m 8 415 l 317 107 l 417 208 l 280 345 l 987 345 l 987 487 l 280 487 l 417 624 l 317 725 z "},"→":{"ha":1006,"x_min":0,"x_max":0,"o":"m 997 432 l 688 740 l 587 640 l 725 503 l 18 503 l 18 360 l 725 360 l 587 223 l 688 122 z "},"−":{"ha":579,"x_min":0,"x_max":0,"o":"m 11 511 l 11 361 l 567 361 l 567 511 z "},"≈":{"ha":649,"x_min":0,"x_max":0,"o":"m 485 559 b 183 656 377 559 307 656 b 35 584 112 656 75 623 l 35 431 b 171 503 65 466 112 503 b 475 408 276 503 364 408 b 613 468 558 408 596 448 l 613 623 b 485 559 577 579 545 559 z m 485 306 b 183 405 377 306 307 405 b 35 332 112 405 75 370 l 35 178 b 171 250 65 214 112 250 b 475 156 276 250 364 156 b 613 215 558 156 596 195 l 613 370 b 486 306 577 327 545 306 z "},"≠":{"ha":629,"x_min":0,"x_max":0,"o":"m 592 458 l 592 606 l 484 606 l 558 725 l 448 725 l 376 606 l 36 606 l 36 458 l 283 458 l 234 378 l 36 378 l 36 229 l 142 229 l 70 111 l 178 111 l 252 229 l 592 229 l 592 378 l 343 378 l 393 458 z "}}}
